<?xml version="1.0" encoding="utf-8"?>
<!-- Generator: Adobe Illustrator 14.0.0, SVG Export Plug-In . SVG Version: 6.00 Build 43363)  -->
<!DOCTYPE svg PUBLIC "-//W3C//DTD SVG 1.1//EN" "http://www.w3.org/Graphics/SVG/1.1/DTD/svg11.dtd">
<svg version="1.1" id="Layer_1" xmlns="http://www.w3.org/2000/svg" xmlns:xlink="http://www.w3.org/1999/xlink" x="0px" y="0px"
	 width="612px" height="792px" viewBox="0 0 612 792" enable-background="new 0 0 612 792" xml:space="preserve">
<g>
	<path fill="#FFFFFF" d="M154.096,265.569c90.387-68.364,292.271-85.34,323.01-89.011c30.741-3.669,29.364-30.282,29.364-34.871
		c0-4.588,4.129-39.458-77.54-33.494c-81.671,5.965-207.388,37.166-256.94,69.741C122.437,210.511,154.096,265.569,154.096,265.569z
		"/>
	<path fill="#FFFFFF" d="M382.59,85.252c18.351-5.047,31.657-22.941,28.445-45.423c-3.211-22.481-17.894-31.2-77.082-22.023
		c-59.188,9.176-131.683,38.082-172.977,72.952c-41.294,34.871-7.34,75.248-7.34,75.248
		C249.989,92.135,364.236,90.299,382.59,85.252z"/>
	<path fill="#FFFFFF" d="M420.672,315.122c-73.841,30.427-81.362,102.856-81.539,129.455c-8.062-0.776-14.652-1.214-18.287-1.214
		h-0.198c-1.551,0-3.638,0.078-6.146,0.23c-0.637-18.486-8.64-75.759-80.572-111.724c0,0,73.639-34.649,181.692-47.038
		c108.052-12.388,97.042-34.173,95.665-45.186c-1.375-11.012-2.752-59.876-187.888-13.764
		c-185.133,46.111-186.509,74.328-182.38,110.805c4.129,36.476,58.401,59.333,70.2,64.006c11.341,4.493,32.558,9.586,34.339,52.426
		c-2.436,0.558-4.723,1.131-6.809,1.716c-22.941,6.422-62.629,19.271-64.924,20.647c-2.294,1.375-8.489,4.817-9.176,11.471
		c-0.688,6.651-5.277,86.258-4.818,97.957c0.459,11.701-4.818,117.229,74.1,173.663c0,0-1.376,16.749,7.8,17.206
		c9.177,0.459,66.528,2.064,78.917,2.064h0.198c12.388,0,69.74-1.605,78.917-2.064c9.177-0.457,7.8-17.206,7.8-17.206
		c78.917-56.434,73.641-161.962,74.099-173.663c0.46-11.699-4.128-91.306-4.817-97.957c-0.688-6.653-6.883-10.096-9.177-11.471
		c-2.053-1.233-34.065-11.655-57.211-18.435c3.94-77.571,42.139-80.924,71.697-89.619c34.591-10.175,29.364-38.081,29.364-39.918
		C511.518,325.675,511.976,277.499,420.672,315.122z"/>
</g>
</svg>
